<svg xmlns="http://www.w3.org/2000/svg" viewBox="0 0 24 24" width="24" height="24">
  <path fill="currentColor" d="M7.292893 2.292893C7.683418 1.902369 8.316582 1.902369 8.707107 2.292893C9.097631 2.683418 9.097631 3.316582 8.707107 3.707107L6.414214 6H20C20.552285 6 21 6.447715 21 7C21 7.552285 20.552285 8 20 8H6.414214L8.707107 10.292893C9.097631 10.683418 9.097631 11.316582 8.707107 11.707107C8.316582 12.097631 7.683418 12.097631 7.292893 11.707107L3.292893 7.707107C2.902369 7.316582 2.902369 6.683418 3.292893 6.292893L7.292893 2.292893ZM15.292893 12.292893C15.683418 11.902369 16.316582 11.902369 16.707107 12.292893L20.707107 16.292893C21.097631 16.683418 21.097631 17.316582 20.707107 17.707107L16.707107 21.707107C16.316582 22.097631 15.683418 22.097631 15.292893 21.707107C14.902369 21.316582 14.902369 20.683418 15.292893 20.292893L17.585786 18H4C3.447715 18 3 17.552285 3 17C3 16.447715 3.447715 16 4 16H17.585786L15.292893 13.707107C14.902369 13.316582 14.902369 12.683418 15.292893 12.292893Z"/>
</svg>
