<svg xmlns="http://www.w3.org/2000/svg" viewBox="0 0 24 24" width="24" height="24">
  <path fill="currentColor" d="M9 3.5C5.962434 3.5 3.5 5.962434 3.5 9C3.5 11.47246 5.149829 13.641039 7.532677 14.300657C7.868838 10.711248 10.711248 7.868838 14.300657 7.532677C13.641039 5.149829 11.47246 3.5 9 3.5ZM14.474874 9.525126C11.852442 9.776659 9.776659 11.852442 9.525126 14.474874C12.147558 14.223341 14.223341 12.147558 14.474874 9.525126ZM9 1.5C12.612544 1.5 15.711775 4.075312 16.373214 7.626786C19.924688 8.288225 22.5 11.387456 22.5 15C22.5 19.142136 19.142136 22.5 15 22.5C11.387456 22.5 8.288225 19.924688 7.626786 16.373214C4.075312 15.711775 1.5 12.612544 1.5 9C1.5 4.857864 4.857864 1.5 9 1.5ZM16.467323 9.699343C16.131162 13.288752 13.288752 16.131162 9.699343 16.467323C10.358961 18.850171 12.52754 20.5 15 20.5C18.037566 20.5 20.5 18.037566 20.5 15C20.5 12.52754 18.850171 10.358961 16.467323 9.699343Z"/>
</svg>
