<svg xmlns="http://www.w3.org/2000/svg" viewBox="0 0 24 24" width="24" height="24">
  <path fill="currentColor" d="M12 10.5C12.828427 10.5 13.5 11.171573 13.5 12C13.5 12.828427 12.828427 13.5 12 13.5C11.171573 13.5 10.5 12.828427 10.5 12C10.5 11.171573 11.171573 10.5 12 10.5ZM14.474874 8.110913C14.865398 7.720388 15.498563 7.720388 15.889087 8.110913C16.920537 9.142363 17.5 10.541309 17.5 12C17.5 13.458691 16.920537 14.857637 15.889087 15.889087C15.498563 16.279612 14.865398 16.279612 14.474874 15.889087C14.084349 15.498563 14.084349 14.865398 14.474874 14.474874C15.131251 13.818496 15.5 12.928258 15.5 12C15.5 11.071742 15.131251 10.181504 14.474874 9.525126C14.084349 9.134602 14.084349 8.501437 14.474874 8.110913ZM17.303301 5.282486C17.693825 4.891961 18.32699 4.891961 18.717514 5.282486C20.49911 7.064081 21.5 9.480443 21.5 12C21.5 14.519557 20.49911 16.935919 18.717514 18.717514C18.32699 19.108039 17.693825 19.108039 17.303301 18.717514C16.912777 18.32699 16.912777 17.693825 17.303301 17.303301C18.709824 15.896778 19.5 13.989124 19.5 12C19.5 10.010876 18.709824 8.103222 17.303301 6.696699C16.912777 6.306175 16.912777 5.67301 17.303301 5.282486ZM8.110913 8.110913C8.501437 7.720388 9.134602 7.720388 9.525126 8.110913C9.915651 8.501437 9.915651 9.134602 9.525126 9.525126C8.868749 10.181504 8.5 11.071742 8.5 12C8.5 12.928258 8.868749 13.818496 9.525126 14.474874C9.915651 14.865398 9.915651 15.498563 9.525126 15.889087C9.134602 16.279612 8.501437 16.279612 8.110913 15.889087C7.079463 14.857637 6.5 13.458691 6.5 12C6.5 10.541309 7.079463 9.142363 8.110913 8.110913ZM5.282486 5.282486C5.67301 4.891961 6.306175 4.891961 6.696699 5.282486C7.087223 5.67301 7.087223 6.306175 6.696699 6.696699C5.290176 8.103222 4.5 10.010876 4.5 12C4.5 13.989124 5.290176 15.896778 6.696699 17.303301C7.087223 17.693825 7.087223 18.32699 6.696699 18.717514C6.306175 19.108039 5.67301 19.108039 5.282486 18.717514C3.50089 16.935919 2.5 14.519557 2.5 12C2.5 9.480443 3.50089 7.064081 5.282486 5.282486Z"/>
</svg>
